PathFileType	4	(X/Y/Z)	/Users/itak/Documents/Research/Walk-IL/dataset/trc/00103_00007.trc
DataRate	CameraRate	NumFrames	NumMarkers	Units	OrigDataRate	OrigDataStartFrame	OrigNumFrames
100.000000	100.000000	4	53	mm	100.000000	70	563
Frame#	Time	RPSI			LPSI			L3			STRN			T10			C7			CLAV			RBAK			LBAK			LSHO			LUPA			LAEL			LAOL			LWTS			LWPS			LFRA			LIFD			LHPS			LHTS			RSHO			RUPA			RAEL			RAOL			RWTS			RWPS			RFRA			RIFD			RHTS			RHPS			RBHD			LFHD			RFHD			LBHD			LHIP			RHIP			RASI			LASI			LKNE			LTHI			LANK			LTIP			LTOE			LMT1			LMT5			LHEE			RKNE			RTHI			RANK			RTIP			RTOE			RMT1			RMT5			RHEE			
		X1	Y1	Z1	X2	Y2	Z2	X3	Y3	Z3	X4	Y4	Z4	X5	Y5	Z5	X6	Y6	Z6	X7	Y7	Z7	X8	Y8	Z8	X9	Y9	Z9	X10	Y10	Z10	X11	Y11	Z11	X12	Y12	Z12	X13	Y13	Z13	X14	Y14	Z14	X15	Y15	Z15	X16	Y16	Z16	X17	Y17	Z17	X18	Y18	Z18	X19	Y19	Z19	X20	Y20	Z20	X21	Y21	Z21	X22	Y22	Z22	X23	Y23	Z23	X24	Y24	Z24	X25	Y25	Z25	X26	Y26	Z26	X27	Y27	Z27	X28	Y28	Z28	X29	Y29	Z29	X30	Y30	Z30	X31	Y31	Z31	X32	Y32	Z32	X33	Y33	Z33	X34	Y34	Z34	X35	Y35	Z35	X36	Y36	Z36	X37	Y37	Z37	X38	Y38	Z38	X39	Y39	Z39	X40	Y40	Z40	X41	Y41	Z41	X42	Y42	Z42	X43	Y43	Z43	X44	Y44	Z44	X45	Y45	Z45	X46	Y46	Z46	X47	Y47	Z47	X48	Y48	Z48	X49	Y49	Z49	X50	Y50	Z50	X51	Y51	Z51	X52	Y52	Z52	X53	Y53	Z53	

71	0.7000000000000001	-1914.435424804688	1125.826538085938	-279.8515319824219	-1913.764526367188	1126.711791992188	-414.2894287109375	-1921.352661132812	1158.367431640625	-349.7426452636719	-1711.669555664062	1362.110229492188	-348.556640625	-1965.228637695312	1307.224975585938	-351.9674682617188	-1935.05517578125	1598.992065429688	-366.46435546875	-1748.531494140625	1497.92041015625	-352.4252624511719	-1987.265869140625	1413.358276367188	-281.0077209472656	-1939.61083984375	1579.236206054688	-468.398681640625	-1850.85986328125	1568.27880859375	-534.265380859375	-1865.273315429688	1435.390502929688	-604.0791015625	-1840.7412109375	1215.544067382812	-621.490966796875	-1911.090087890625	1202.272583007812	-570.5103149414062	-1739.787841796875	961.0043334960938	-564.0707397460938	-1817.43115234375	933.5662231445312	-599.0153198242188	-1821.366333007812	1100.184936523438	-621.7916870117188	-1730.229858398438	767.7899169921875	-536.6898803710938	-1786.28857421875	858.91650390625	-595.1849975585938	-1721.539428710938	871.5572509765625	-571.7540283203125	-1886.7255859375	1581.862548828125	-183.8842468261719	-1904.096313476562	1508.070434570312	-121.0378875732422	-1904.879028320312	1213.072509765625	-98.93674468994141	-1911.7744140625	1212.114624023438	-196.1285247802734	-1749.846069335938	976.44580078125	-115.9513473510742	-1824.265625	955.8131103515625	-84.04417419433594	-1878.375	1140.486083984375	-84.3812255859375	-1719.676879882812	782.4221801757812	-135.9844512939453	-1716.82421875	867.979248046875	-112.1108779907227	-1785.89453125	857.6969604492188	-80.27958679199219	-1903.510131835938	1772.68310546875	-284.5374755859375	-1741.23583984375	1843.051513671875	-417.2609252929688	-1741.188842773438	1847.47998046875	-287.496826171875	-1910.049194335938	1771.969482421875	-419.7407836914062	-1819.491088867188	1037.634033203125	-519.9815063476562	-1789.784423828125	1030.592529296875	-161.9380340576172	-1706.941284179688	1105.060791015625	-213.0628509521484	-1712.280395507812	1105.659912109375	-479.8818054199219	-1799.830688476562	535.5732421875	-482.3949890136719	-1818.843994140625	682.1412963867188	-513.1267700195312	-1914.468139648438	36.88509750366211	-467.2820129394531	-1900.799926757812	289.441650390625	-506.024169921875	-1685.078491210938	37.06671905517578	-404.1054992675781	-1766.635131835938	40.20903778076172	-372.2681274414062	-1788.4912109375	33.00681304931641	-490.7055969238281	-1984.114501953125	36.77401351928711	-405.65478515625	-1806.422973632812	537.9889526367188	-193.1905670166016	-1776.655517578125	816.8364868164062	-166.7698669433594	-1914.4267578125	28.9957275390625	-208.9005432128906	-1835.657836914062	405.75390625	-181.9973602294922	-1681.772094726562	40.32623291015625	-262.7676086425781	-1744.635498046875	30.50314331054688	-303.8304138183594	-1780.6513671875	37.46179580688477	-187.5713653564453	-1972.04443359375	32.64038467407227	-257.9402160644531	
72	0.71	-1914.51123046875	1125.825805664062	-279.8294372558594	-1913.836547851562	1126.710205078125	-414.2893981933594	-1921.406005859375	1158.361938476562	-349.7191162109375	-1711.763916015625	1362.086059570312	-348.4809265136719	-1965.279541015625	1307.228271484375	-351.9669799804688	-1935.0546875	1599.0048828125	-366.4608764648438	-1748.555053710938	1497.885009765625	-352.4105529785156	-1987.33203125	1413.391723632812	-280.9953002929688	-1939.595581054688	1579.234985351562	-468.4050903320312	-1850.847045898438	1568.241455078125	-534.2499389648438	-1865.268798828125	1435.321044921875	-604.0140380859375	-1840.8232421875	1215.472900390625	-621.3875732421875	-1911.166015625	1202.256591796875	-570.4253540039062	-1740.051391601562	960.907958984375	-563.8526611328125	-1817.6708984375	933.4855346679688	-598.8311767578125	-1821.487548828125	1100.110595703125	-621.65576171875	-1730.588256835938	767.6485595703125	-536.3866577148438	-1786.59716796875	858.8263549804688	-594.96435546875	-1721.791259765625	871.4376220703125	-571.4627685546875	-1886.7802734375	1581.902099609375	-183.8644714355469	-1904.148315429688	1508.116577148438	-121.0279388427734	-1904.931518554688	1213.11474609375	-98.85871124267578	-1911.856323242188	1212.158081054688	-196.0396728515625	-1750.080078125	976.3858032226562	-115.8458709716797	-1824.535034179688	955.8194580078125	-83.91455841064453	-1878.483154296875	1140.552001953125	-84.29662322998047	-1720.127807617188	782.310546875	-135.8542938232422	-1717.312744140625	867.8155517578125	-112.0165405273438	-1786.267211914062	857.6773071289062	-80.1434326171875	-1903.53857421875	1772.668212890625	-284.5531005859375	-1741.26123046875	1843.06787109375	-417.2425231933594	-1741.230712890625	1847.490234375	-287.4810791015625	-1910.053344726562	1771.948608398438	-419.7727355957031	-1819.539916992188	1037.6279296875	-519.9701538085938	-1789.869384765625	1030.588134765625	-161.906494140625	-1707.022094726562	1105.06689453125	-212.9993133544922	-1712.327270507812	1105.648803710938	-479.8366088867188	-1799.804565429688	535.5621337890625	-482.3705444335938	-1818.830810546875	682.1353759765625	-513.1143798828125	-1914.467651367188	36.89004516601562	-467.2944030761719	-1900.768188476562	289.4347534179688	-506.0341796875	-1685.095092773438	37.07267761230469	-404.1070556640625	-1766.641479492188	40.21108245849609	-372.265625	-1788.491088867188	33.00936126708984	-490.7009887695312	-1984.116455078125	36.75866317749023	-405.6648254394531	-1806.4404296875	537.99560546875	-193.1672821044922	-1776.817138671875	816.79931640625	-166.6482543945312	-1914.429565429688	28.99559593200684	-208.8978881835938	-1835.649536132812	405.7439575195312	-181.9667510986328	-1681.790161132812	40.33164596557617	-262.7680358886719	-1744.610595703125	30.51268577575684	-303.8126220703125	-1780.653442382812	37.45950698852539	-187.5700378417969	-1972.047973632812	32.63058853149414	-257.9447631835938	
73	0.72	-1914.589965820312	1125.823608398438	-279.8062744140625	-1913.9111328125	1126.70849609375	-414.2884521484375	-1921.464965820312	1158.35595703125	-349.6949462890625	-1711.861083984375	1362.064208984375	-348.4028930664062	-1965.308227539062	1307.198608398438	-351.9320373535156	-1935.0556640625	1599.017700195312	-366.4515686035156	-1748.5859375	1497.853515625	-352.3882751464844	-1987.397827148438	1413.424194335938	-280.9812927246094	-1939.584350585938	1579.238037109375	-468.4057922363281	-1850.8330078125	1568.2060546875	-534.231201171875	-1865.274536132812	1435.256591796875	-603.9428100585938	-1840.931884765625	1215.402709960938	-621.2882080078125	-1911.26123046875	1202.243286132812	-570.3408203125	-1740.29833984375	960.8364868164062	-563.6220092773438	-1817.887817382812	933.40869140625	-598.6326293945312	-1821.626831054688	1100.040283203125	-621.5189208984375	-1730.857177734375	767.5331420898438	-536.0401000976562	-1786.876831054688	858.755126953125	-594.7189331054688	-1721.994995117188	871.3389892578125	-571.1422729492188	-1886.835693359375	1581.940185546875	-183.8386383056641	-1904.202026367188	1508.16015625	-121.0117874145508	-1904.979736328125	1213.160522460938	-98.77200317382812	-1911.937133789062	1212.19775390625	-195.94580078125	-1750.313232421875	976.322998046875	-115.745246887207	-1824.81298828125	955.8255004882812	-83.79366302490234	-1878.59326171875	1140.61572265625	-84.20893859863281	-1720.5947265625	782.1775512695312	-135.7313995361328	-1717.794555664062	867.6646728515625	-111.9237823486328	-1786.625854492188	857.65185546875	-79.99870300292969	-1903.563354492188	1772.65771484375	-284.5679016113281	-1741.281860351562	1843.078369140625	-417.2271423339844	-1741.267944335938	1847.499389648438	-287.4682006835938	-1910.052978515625	1771.927124023438	-419.8019409179688	-1819.598876953125	1037.62353515625	-519.9585571289062	-1789.9501953125	1030.5830078125	-161.8734436035156	-1707.104370117188	1105.074951171875	-212.9377593994141	-1712.372680664062	1105.642456054688	-479.7948913574219	-1799.771728515625	535.5510864257812	-482.3448181152344	-1818.808959960938	682.129150390625	-513.10009765625	-1914.466552734375	36.89382934570312	-467.3086242675781	-1900.72705078125	289.4281921386719	-506.0475769042969	-1685.112548828125	37.07797622680664	-404.1077880859375	-1766.645263671875	40.2136116027832	-372.2626647949219	-1788.491455078125	33.01085662841797	-490.6971435546875	-1984.118530273438	36.74644470214844	-405.6794738769531	-1806.442016601562	538.0010986328125	-193.14111328125	-1776.970092773438	816.7613525390625	-166.5273590087891	-1914.43310546875	28.99580764770508	-208.8949279785156	-1835.62451171875	405.7319946289062	-181.9355773925781	-1681.806762695312	40.33832931518555	-262.766845703125	-1744.588745117188	30.52215576171875	-303.7958068847656	-1780.65576171875	37.45745086669922	-187.5686492919922	-1972.052612304688	32.6232795715332	-257.9494323730469	
74	0.73	-1914.670654296875	1125.820434570312	-279.7815246582031	-1913.986328125	1126.707885742188	-414.2840881347656	-1921.52978515625	1158.3505859375	-349.6694030761719	-1711.96044921875	1362.045776367188	-348.3236389160156	-1965.317016601562	1307.141357421875	-351.8656005859375	-1935.058715820312	1599.031005859375	-366.4364318847656	-1748.624267578125	1497.828125	-352.3578796386719	-1987.462280273438	1413.456298828125	-280.9639587402344	-1939.578979492188	1579.246215820312	-468.3990478515625	-1850.818115234375	1568.173461914062	-534.209228515625	-1865.293823242188	1435.199829101562	-603.8673706054688	-1841.064819335938	1215.33544921875	-621.1915893554688	-1911.375610351562	1202.23291015625	-570.2533569335938	-1740.519897460938	960.792236328125	-563.3872680664062	-1818.083251953125	933.3382568359375	-598.420654296875	-1821.785278320312	1099.974853515625	-621.3809814453125	-1731.02587890625	767.4508666992188	-535.652587890625	-1787.12451171875	858.7023315429688	-594.4525756835938	-1722.154541015625	871.2609252929688	-570.8084106445312	-1886.890258789062	1581.977172851562	-183.8063812255859	-1904.257446289062	1508.202392578125	-120.9893341064453	-1905.029541015625	1213.210083007812	-98.67925262451172	-1912.017456054688	1212.234130859375	-195.8495025634766	-1750.540161132812	976.2600708007812	-115.6507263183594	-1825.098754882812	955.8324584960938	-83.68302154541016	-1878.7109375	1140.676147460938	-84.11922454833984	-1721.061645507812	782.030517578125	-135.6125183105469	-1718.254028320312	867.5327758789062	-111.8263320922852	-1786.967407226562	857.621826171875	-79.84639739990234	-1903.584228515625	1772.65234375	-284.5814208984375	-1741.296142578125	1843.083129882812	-417.2146301269531	-1741.299194335938	1847.507934570312	-287.4583129882812	-1910.049438476562	1771.906494140625	-419.8271789550781	-1819.669799804688	1037.621826171875	-519.9446411132812	-1790.0263671875	1030.578369140625	-161.8391723632812	-1707.187744140625	1105.085205078125	-212.8783874511719	-1712.414794921875	1105.641357421875	-479.7565612792969	-1799.73388671875	535.5413818359375	-482.3182373046875	-1818.778442382812	682.1232299804688	-513.08251953125	-1914.4658203125	36.89619827270508	-467.32421875	-1900.677978515625	289.4228515625	-506.0635986328125	-1685.129516601562	37.08258056640625	-404.1079711914062	-1766.647827148438	40.21585464477539	-372.2595825195312	-1788.491821289062	33.01126098632812	-490.6936645507812	-1984.120483398438	36.73672866821289	-405.6983642578125	-1806.424682617188	538.0056762695312	-193.1117858886719	-1777.122924804688	816.7215576171875	-166.4132385253906	-1914.437744140625	28.99594497680664	-208.8914031982422	-1835.578857421875	405.7160949707031	-181.9025726318359	-1681.819702148438	40.34698104858398	-262.7632446289062	-1744.580078125	30.53011894226074	-303.7860412597656	-1780.658569335938	37.45631790161133	-187.5674285888672	-1972.0576171875	32.61870956420898	-257.9532165527344	
